<svg width="186" height="47" viewBox="0 0 186 47" fill="none" xmlns="http://www.w3.org/2000/svg">
<path d="M55.55 24.165C56.39 22.6717 56.81 21.1667 56.81 19.65C56.81 18.6467 56.4483 18.145 55.725 18.145C55.165 18.145 54.5933 18.6233 54.01 19.58C53.4033 20.5367 53.0067 21.6333 52.82 22.87L51 34L43.755 34.7L47.325 16.15L53.1 15.45L52.47 18.985C53.6133 16.6283 55.4683 15.45 58.035 15.45C59.3883 15.45 60.4267 15.8 61.15 16.5C61.8967 17.2 62.27 18.2733 62.27 19.72C62.27 21.1433 61.7917 22.31 60.835 23.22C59.9017 24.13 58.63 24.585 57.02 24.585C56.32 24.585 55.83 24.445 55.55 24.165ZM88.047 34.7C85.2236 34.7 83.812 33.6033 83.812 31.41C83.812 30.4533 84.0103 29.0533 84.407 27.21C84.827 25.3433 85.107 24.0367 85.247 23.29C85.5736 21.5867 85.737 20.4667 85.737 19.93C85.737 18.74 85.2936 18.145 84.407 18.145C83.8236 18.145 83.252 18.5533 82.692 19.37C82.132 20.1633 81.7236 21.365 81.467 22.975L79.297 34L72.472 34.7L74.362 25.18C74.572 24.13 74.7703 23.01 74.957 21.82C75.1436 20.63 75.237 19.9417 75.237 19.755C75.237 18.6817 74.8403 18.145 74.047 18.145C73.5103 18.145 72.9503 18.5417 72.367 19.335C71.7836 20.1283 71.3286 21.3417 71.002 22.975L68.867 34L61.972 34.7L65.647 16.15L71.352 15.45L70.757 18.985C71.3636 17.725 72.227 16.8267 73.347 16.29C74.467 15.73 75.902 15.45 77.652 15.45C78.6553 15.45 79.4836 15.695 80.137 16.185C80.7903 16.675 81.222 17.3167 81.432 18.11C81.8286 17.2933 82.5286 16.6517 83.532 16.185C84.5586 15.695 85.6903 15.45 86.927 15.45C88.187 15.45 89.1203 15.59 89.727 15.87C90.357 16.1267 90.8586 16.4767 91.232 16.92C91.862 17.7367 92.177 18.8917 92.177 20.385C92.177 21.855 91.862 24.1183 91.232 27.175C90.9053 28.6683 90.742 29.695 90.742 30.255C90.742 30.7917 90.8936 31.2233 91.197 31.55C91.5236 31.8767 91.9203 32.0633 92.387 32.11C92.1536 32.9033 91.6286 33.5333 90.812 34C90.0186 34.4667 89.097 34.7 88.047 34.7ZM94.6234 32.32L98.9634 9.5L106.068 8.8L104.983 14.155C104.727 15.2517 104.435 16.185 104.108 16.955C104.622 16.3017 105.438 15.8467 106.558 15.59C106.885 15.4967 107.247 15.45 107.643 15.45C109.813 15.45 111.493 16.115 112.683 17.445C113.873 18.7517 114.468 20.6767 114.468 23.22C114.468 26.5333 113.523 29.2283 111.633 31.305C109.603 33.5683 106.745 34.7 103.058 34.7C100.515 34.7 98.2867 34.28 96.3734 33.44C95.6967 33.1367 95.1134 32.7633 94.6234 32.32ZM101.658 32.005C102.148 32.425 102.697 32.635 103.303 32.635C103.91 32.635 104.388 32.5183 104.738 32.285C105.088 32.0517 105.392 31.7017 105.648 31.235C106.348 29.975 106.978 27.42 107.538 23.57C107.702 22.4733 107.783 21.3767 107.783 20.28C107.783 19.1833 107.655 18.46 107.398 18.11C107.165 17.76 106.815 17.585 106.348 17.585C104.925 17.585 103.98 18.9733 103.513 21.75L101.658 32.005ZM127.532 24.165C128.372 22.6717 128.792 21.1667 128.792 19.65C128.792 18.6467 128.431 18.145 127.707 18.145C127.147 18.145 126.576 18.6233 125.992 19.58C125.386 20.5367 124.989 21.6333 124.802 22.87L122.982 34L115.737 34.7L119.307 16.15L125.082 15.45L124.452 18.985C125.596 16.6283 127.451 15.45 130.017 15.45C131.371 15.45 132.409 15.8 133.132 16.5C133.879 17.2 134.252 18.2733 134.252 19.72C134.252 21.1433 133.774 22.31 132.817 23.22C131.884 24.13 130.612 24.585 129.002 24.585C128.302 24.585 127.812 24.445 127.532 24.165ZM160.029 34.7C157.206 34.7 155.794 33.6033 155.794 31.41C155.794 30.4533 155.993 29.0533 156.389 27.21C156.809 25.3433 157.089 24.0367 157.229 23.29C157.556 21.5867 157.719 20.4667 157.719 19.93C157.719 18.74 157.276 18.145 156.389 18.145C155.806 18.145 155.234 18.5533 154.674 19.37C154.114 20.1633 153.706 21.365 153.449 22.975L151.279 34L144.454 34.7L146.344 25.18C146.554 24.13 146.753 23.01 146.939 21.82C147.126 20.63 147.219 19.9417 147.219 19.755C147.219 18.6817 146.823 18.145 146.029 18.145C145.493 18.145 144.933 18.5417 144.349 19.335C143.766 20.1283 143.311 21.3417 142.984 22.975L140.849 34L133.954 34.7L137.629 16.15L143.334 15.45L142.739 18.985C143.346 17.725 144.209 16.8267 145.329 16.29C146.449 15.73 147.884 15.45 149.634 15.45C150.638 15.45 151.466 15.695 152.119 16.185C152.773 16.675 153.204 17.3167 153.414 18.11C153.811 17.2933 154.511 16.6517 155.514 16.185C156.541 15.695 157.673 15.45 158.909 15.45C160.169 15.45 161.103 15.59 161.709 15.87C162.339 16.1267 162.841 16.4767 163.214 16.92C163.844 17.7367 164.159 18.8917 164.159 20.385C164.159 21.855 163.844 24.1183 163.214 27.175C162.888 28.6683 162.724 29.695 162.724 30.255C162.724 30.7917 162.876 31.2233 163.179 31.55C163.506 31.8767 163.903 32.0633 164.369 32.11C164.136 32.9033 163.611 33.5333 162.794 34C162.001 34.4667 161.079 34.7 160.029 34.7ZM181.236 28.085C181.819 28.4817 182.111 29.1233 182.111 30.01C182.111 30.8733 181.889 31.585 181.446 32.145C181.002 32.705 180.419 33.1717 179.696 33.545C178.202 34.315 176.651 34.7 175.041 34.7C173.431 34.7 172.147 34.525 171.191 34.175C170.257 33.825 169.476 33.3233 168.846 32.67C167.609 31.4333 166.991 29.6833 166.991 27.42C166.991 23.8967 167.947 21.0617 169.861 18.915C171.914 16.605 174.726 15.45 178.296 15.45C180.512 15.45 182.169 15.9167 183.266 16.85C184.082 17.55 184.491 18.4717 184.491 19.615C184.491 23.7217 180.944 25.775 173.851 25.775C173.757 26.3817 173.711 26.9417 173.711 27.455C173.711 28.5283 173.944 29.275 174.411 29.695C174.901 30.0917 175.589 30.29 176.476 30.29C177.362 30.29 178.272 30.0917 179.206 29.695C180.162 29.275 180.839 28.7383 181.236 28.085ZM174.096 24.27C175.752 24.27 177.059 23.7567 178.016 22.73C178.972 21.75 179.451 20.4783 179.451 18.915C179.451 18.3783 179.346 17.97 179.136 17.69C178.949 17.3867 178.657 17.235 178.261 17.235C177.864 17.235 177.491 17.3167 177.141 17.48C176.814 17.62 176.476 17.9467 176.126 18.46C175.262 19.6267 174.586 21.5633 174.096 24.27Z" fill="white"/>
<path d="M22 1V27.688H36.0618L22 1Z" fill="#EAD200"/>
<path d="M7.93848 18.312L22.0002 45V18.312H7.93848Z" fill="#E5EA00"/>
</svg>
